HIERARCHY
ROOT newVegas:Hips
{
	OFFSET 0.000000 96.479958 0.000000
	CHANNELS 6 Xposition Yposition Zposition Xrotation Yrotation Zrotation
	JOINT newVegas:Pelvis
	{
		OFFSET 0.000000 0.000000 0.000000
		CHANNELS 3 Xrotation Yrotation Zrotation
		JOINT newVegas:LeftUpLeg
		{
			OFFSET 18.735201 -5.666702 -4.541200
			CHANNELS 3 Xrotation Yrotation Zrotation
			JOINT newVegas:LeftLeg
			{
				OFFSET -0.021200 -31.938179 0.493100
				CHANNELS 3 Xrotation Yrotation Zrotation
				JOINT newVegas:LeftFoot
				{
					OFFSET 0.021200 -31.938179 -4.336299
					CHANNELS 3 Xrotation Yrotation Zrotation
					JOINT newVegas:LeftToeBase
					{
						OFFSET 0.943001 -26.722000 15.023500
						CHANNELS 3 Xrotation Yrotation Zrotation
						End Site
						{
							OFFSET 0.000000 30.670183 0.000000
						}
					}
				}
				JOINT newVegas:Left_PantLeg
				{
					OFFSET 0.663870 -9.044666 -1.108900
					CHANNELS 3 Xrotation Yrotation Zrotation
					End Site
					{
						OFFSET 1.415995 20.635357 0.000000
					}
				}
			}
		}
		JOINT newVegas:RightUpLeg
		{
			OFFSET -18.735201 -5.666702 -4.541200
			CHANNELS 3 Xrotation Yrotation Zrotation
			JOINT newVegas:RightLeg
			{
				OFFSET 0.018946 -31.938133 0.493100
				CHANNELS 3 Xrotation Yrotation Zrotation
				JOINT newVegas:RightFoot
				{
					OFFSET -0.018946 -31.938126 -4.336299
					CHANNELS 3 Xrotation Yrotation Zrotation
					JOINT newVegas:RightToeBase
					{
						OFFSET -0.943001 -26.722004 15.023500
						CHANNELS 3 Xrotation Yrotation Zrotation
						End Site
						{
							OFFSET 0.000000 30.670187 0.000000
						}
					}
				}
				JOINT newVegas:Right_PantLeg
				{
					OFFSET -0.661674 -9.044716 -1.108900
					CHANNELS 3 Xrotation Yrotation Zrotation
					End Site
					{
						OFFSET -1.415958 20.635269 0.000000
					}
				}
			}
		}
	}
	JOINT newVegas:Spine
	{
		OFFSET 0.000000 10.199997 -0.299500
		CHANNELS 3 Xrotation Yrotation Zrotation
		JOINT newVegas:Spine1
		{
			OFFSET 0.000000 11.900002 -1.516600
			CHANNELS 3 Xrotation Yrotation Zrotation
			JOINT newVegas:Spine2
			{
				OFFSET 0.000000 13.600006 -2.842500
				CHANNELS 3 Xrotation Yrotation Zrotation
				JOINT newVegas:Neck
				{
					OFFSET 0.000000 9.624100 -2.890100
					CHANNELS 3 Xrotation Yrotation Zrotation
					JOINT newVegas:Head
					{
						OFFSET 0.000000 14.068802 -1.351900
						CHANNELS 3 Xrotation Yrotation Zrotation
						JOINT newVegas:Hair_Back
						{
							OFFSET 0.000000 3.231903 -17.524799
							CHANNELS 3 Xrotation Yrotation Zrotation
							End Site
							{
								OFFSET 0.000000 19.849884 0.000000
							}
						}
						JOINT newVegas:Hair_Front
						{
							OFFSET 0.000000 31.260406 4.573800
							CHANNELS 3 Xrotation Yrotation Zrotation
							JOINT newVegas:Hair_Front1
							{
								OFFSET 0.000000 2.284103 11.993300
								CHANNELS 3 Xrotation Yrotation Zrotation
								JOINT newVegas:Hair_Front2
								{
									OFFSET 0.000000 2.284103 11.993300
									CHANNELS 3 Xrotation Yrotation Zrotation
									End Site
									{
										OFFSET 0.000000 12.208862 0.000000
									}
								}
							}
						}
						JOINT newVegas:Jowel
						{
							OFFSET 0.000000 -7.458206 6.864100
							CHANNELS 3 Xrotation Yrotation Zrotation
							End Site
							{
								OFFSET 0.000000 19.849884 0.000000
							}
						}
					}
				}
				JOINT newVegas:LeftShoulder
				{
					OFFSET 15.263000 10.923401 -0.547700
					CHANNELS 3 Xrotation Yrotation Zrotation
					JOINT newVegas:LeftArm
					{
						OFFSET 25.438599 -2.830597 -13.032500
						CHANNELS 3 Xrotation Yrotation Zrotation
						JOINT newVegas:LeftForeArm
						{
							OFFSET 29.960503 0.000000 0.000000
							CHANNELS 3 Xrotation Yrotation Zrotation
							JOINT newVegas:LeftHand
							{
								OFFSET 27.849251 0.000000 0.000000
								CHANNELS 3 Xrotation Yrotation Zrotation
								JOINT newVegas:LeftHandThumb1
								{
									OFFSET 4.487587 -3.305161 6.305391
									CHANNELS 3 Xrotation Yrotation Zrotation
									JOINT newVegas:LeftHandThumb2
									{
										OFFSET 5.480453 -3.164139 3.164143
										CHANNELS 3 Xrotation Yrotation Zrotation
										JOINT newVegas:LeftHandThumb3
										{
											OFFSET 5.159721 -2.978973 2.978967
											CHANNELS 3 Xrotation Yrotation Zrotation
											End Site
											{
												OFFSET 2.494507 5.926697 1.738678
											}
										}
									}
								}
								JOINT newVegas:LeftHandIndex1
								{
									OFFSET 18.578728 -0.527832 5.208049
									CHANNELS 3 Xrotation Yrotation Zrotation
									JOINT newVegas:LeftHandIndex2
									{
										OFFSET 3.192009 0.000000 0.000000
										CHANNELS 3 Xrotation Yrotation Zrotation
										JOINT newVegas:LeftHandIndex3
										{
											OFFSET 3.835129 0.000000 0.000000
											CHANNELS 3 Xrotation Yrotation Zrotation
											End Site
											{
												OFFSET -0.034599 3.816971 0.371180
											}
										}
									}
								}
								JOINT newVegas:LeftHandMiddle1
								{
									OFFSET 18.476105 0.000000 0.000000
									CHANNELS 3 Xrotation Yrotation Zrotation
									JOINT newVegas:LeftHandMiddle2
									{
										OFFSET 3.324875 0.000000 0.000000
										CHANNELS 3 Xrotation Yrotation Zrotation
										JOINT newVegas:LeftHandMiddle3
										{
											OFFSET 4.596550 0.000000 0.000000
											CHANNELS 3 Xrotation Yrotation Zrotation
											End Site
											{
												OFFSET 0.057701 4.578827 0.399218
											}
										}
									}
								}
								JOINT newVegas:LeftHandRing1
								{
									OFFSET 17.732719 0.121887 -4.201567
									CHANNELS 3 Xrotation Yrotation Zrotation
									JOINT newVegas:LeftHandRing2
									{
										OFFSET 2.733170 0.000000 0.000000
										CHANNELS 3 Xrotation Yrotation Zrotation
										JOINT newVegas:LeftHandRing3
										{
											OFFSET 3.178268 0.000000 0.000000
											CHANNELS 3 Xrotation Yrotation Zrotation
											End Site
											{
												OFFSET 0.119102 3.170624 0.185394
											}
										}
									}
								}
								JOINT newVegas:LeftHandPinky1
								{
									OFFSET 15.989624 -0.606689 -7.535461
									CHANNELS 3 Xrotation Yrotation Zrotation
									JOINT newVegas:LeftHandPinky2
									{
										OFFSET 2.538986 0.000000 0.000000
										CHANNELS 3 Xrotation Yrotation Zrotation
										JOINT newVegas:LeftHandPinky3
										{
											OFFSET 2.593102 0.000000 0.000000
											CHANNELS 3 Xrotation Yrotation Zrotation
											End Site
											{
												OFFSET -0.150902 2.584198 0.152708
											}
										}
									}
								}
							}
							JOINT newVegas:Left_Sleeve
							{
								OFFSET 0.267448 -0.649796 0.577675
								CHANNELS 3 Xrotation Yrotation Zrotation
								End Site
								{
									OFFSET 0.000000 15.991241 0.000000
								}
							}
							JOINT newVegas:Left_CapeC
							{
								OFFSET 15.715958 -8.608795 -6.935905
								CHANNELS 3 Xrotation Yrotation Zrotation
								JOINT newVegas:Left_CapeC1
								{
									OFFSET 0.000000 -8.688499 0.000000
									CHANNELS 3 Xrotation Yrotation Zrotation
									End Site
									{
										OFFSET 0.000000 8.688499 0.000000
									}
								}
							}
						}
						JOINT newVegas:Left_CapeB
						{
							OFFSET 26.118385 -8.608795 -7.079235
							CHANNELS 3 Xrotation Yrotation Zrotation
							JOINT newVegas:Left_CapeB1
							{
								OFFSET 0.000000 -8.688499 0.000000
								CHANNELS 3 Xrotation Yrotation Zrotation
								End Site
								{
									OFFSET 0.000000 8.688499 0.000000
								}
							}
						}
						JOINT newVegas:Left_CapeA
						{
							OFFSET 5.115639 -8.608795 -10.395809
							CHANNELS 3 Xrotation Yrotation Zrotation
							JOINT newVegas:Left_CapeA1
							{
								OFFSET 0.000000 -8.688499 0.000000
								CHANNELS 3 Xrotation Yrotation Zrotation
								End Site
								{
									OFFSET 0.000000 8.688499 0.000000
								}
							}
						}
					}
				}
				JOINT newVegas:RightShoulder
				{
					OFFSET -15.263000 10.923401 -0.547700
					CHANNELS 3 Xrotation Yrotation Zrotation
					JOINT newVegas:RightArm
					{
						OFFSET -25.438599 -2.830597 -13.032500
						CHANNELS 3 Xrotation Yrotation Zrotation
						JOINT newVegas:RightForeArm
						{
							OFFSET -29.960503 0.000000 0.000000
							CHANNELS 3 Xrotation Yrotation Zrotation
							JOINT newVegas:RightHand
							{
								OFFSET -27.849251 0.000000 0.000000
								CHANNELS 3 Xrotation Yrotation Zrotation
								JOINT newVegas:RightHandThumb1
								{
									OFFSET -4.487587 -3.305161 6.305391
									CHANNELS 3 Xrotation Yrotation Zrotation
									JOINT newVegas:RightHandThumb2
									{
										OFFSET -5.480453 -3.164139 3.164143
										CHANNELS 3 Xrotation Yrotation Zrotation
										JOINT newVegas:RightHandThumb3
										{
											OFFSET -5.159721 -2.978973 2.978967
											CHANNELS 3 Xrotation Yrotation Zrotation
											End Site
											{
												OFFSET -2.494507 5.926697 1.738678
											}
										}
									}
								}
								JOINT newVegas:RightHandIndex1
								{
									OFFSET -18.578728 -0.527832 5.208049
									CHANNELS 3 Xrotation Yrotation Zrotation
									JOINT newVegas:RightHandIndex2
									{
										OFFSET -3.192009 0.000000 0.000000
										CHANNELS 3 Xrotation Yrotation Zrotation
										JOINT newVegas:RightHandIndex3
										{
											OFFSET -3.835129 0.000000 0.000000
											CHANNELS 3 Xrotation Yrotation Zrotation
											End Site
											{
												OFFSET 0.034599 3.816971 0.371180
											}
										}
									}
								}
								JOINT newVegas:RightHandMiddle1
								{
									OFFSET -18.476105 0.000000 0.000000
									CHANNELS 3 Xrotation Yrotation Zrotation
									JOINT newVegas:RightHandMiddle2
									{
										OFFSET -3.324875 0.000000 0.000000
										CHANNELS 3 Xrotation Yrotation Zrotation
										JOINT newVegas:RightHandMiddle3
										{
											OFFSET -4.596550 0.000000 0.000000
											CHANNELS 3 Xrotation Yrotation Zrotation
											End Site
											{
												OFFSET -0.057701 4.578827 0.399218
											}
										}
									}
								}
								JOINT newVegas:RightHandRing1
								{
									OFFSET -17.732719 0.121887 -4.201567
									CHANNELS 3 Xrotation Yrotation Zrotation
									JOINT newVegas:RightHandRing2
									{
										OFFSET -2.733170 0.000000 0.000000
										CHANNELS 3 Xrotation Yrotation Zrotation
										JOINT newVegas:RightHandRing3
										{
											OFFSET -3.178268 0.000000 0.000000
											CHANNELS 3 Xrotation Yrotation Zrotation
											End Site
											{
												OFFSET -0.119102 3.170624 0.185394
											}
										}
									}
								}
								JOINT newVegas:RightHandPinky1
								{
									OFFSET -15.989624 -0.606689 -7.535461
									CHANNELS 3 Xrotation Yrotation Zrotation
									JOINT newVegas:RightHandPinky2
									{
										OFFSET -2.538986 0.000000 0.000000
										CHANNELS 3 Xrotation Yrotation Zrotation
										JOINT newVegas:RightHandPinky3
										{
											OFFSET -2.593102 0.000000 0.000000
											CHANNELS 3 Xrotation Yrotation Zrotation
											End Site
											{
												OFFSET 0.150902 2.584198 0.152708
											}
										}
									}
								}
							}
							JOINT newVegas:Right_CapeC
							{
								OFFSET -15.715958 -8.608795 -6.935905
								CHANNELS 3 Xrotation Yrotation Zrotation
								JOINT newVegas:Right_CapeC1
								{
									OFFSET 0.000000 -8.688499 0.000000
									CHANNELS 3 Xrotation Yrotation Zrotation
									End Site
									{
										OFFSET 0.000000 8.688499 0.000000
									}
								}
							}
							JOINT newVegas:Right_Sleeve
							{
								OFFSET -0.267448 -0.649994 0.577675
								CHANNELS 3 Xrotation Yrotation Zrotation
								End Site
								{
									OFFSET 0.000000 15.991302 0.000000
								}
							}
						}
						JOINT newVegas:Right_CapeA
						{
							OFFSET -5.115540 -8.608795 -10.395824
							CHANNELS 3 Xrotation Yrotation Zrotation
							JOINT newVegas:Right_CapeA1
							{
								OFFSET 0.000000 -8.688499 0.000000
								CHANNELS 3 Xrotation Yrotation Zrotation
								End Site
								{
									OFFSET 0.000000 8.688499 0.000000
								}
							}
						}
						JOINT newVegas:Right_CapeB
						{
							OFFSET -26.118187 -8.608795 -7.079266
							CHANNELS 3 Xrotation Yrotation Zrotation
							JOINT newVegas:Right_CapeB1
							{
								OFFSET 0.000000 -8.688499 0.000000
								CHANNELS 3 Xrotation Yrotation Zrotation
								End Site
								{
									OFFSET 0.000000 8.688499 0.000000
								}
							}
						}
					}
				}
				JOINT newVegas:Left_Collar
				{
					OFFSET 18.625099 8.655502 8.828100
					CHANNELS 3 Xrotation Yrotation Zrotation
					JOINT newVegas:Left_Collar1
					{
						OFFSET 14.783401 10.540405 -1.259500
						CHANNELS 3 Xrotation Yrotation Zrotation
						End Site
						{
							OFFSET 0.000000 18.199875 0.000000
						}
					}
				}
				JOINT newVegas:Collar_Back
				{
					OFFSET 0.000000 15.630707 -20.132601
					CHANNELS 3 Xrotation Yrotation Zrotation
					End Site
					{
						OFFSET 0.000000 22.523010 0.000000
					}
				}
				JOINT newVegas:Left_Peck
				{
					OFFSET 17.239599 -5.132599 25.482599
					CHANNELS 3 Xrotation Yrotation Zrotation
					End Site
					{
						OFFSET 0.000000 22.523010 0.000000
					}
				}
				JOINT newVegas:Right_Peck
				{
					OFFSET -17.239599 -5.132202 25.482599
					CHANNELS 3 Xrotation Yrotation Zrotation
					End Site
					{
						OFFSET 0.000000 22.523010 0.000000
					}
				}
				JOINT newVegas:Right_Collar
				{
					OFFSET -18.625099 8.655792 8.828100
					CHANNELS 3 Xrotation Yrotation Zrotation
					JOINT newVegas:Right_Collar1
					{
						OFFSET -14.783401 10.539993 -1.259500
						CHANNELS 3 Xrotation Yrotation Zrotation
						End Site
						{
							OFFSET 0.000000 18.199631 0.000000
						}
					}
				}
			}
		}
		JOINT newVegas:Belly
		{
			OFFSET 0.000000 -6.540398 9.014299
			CHANNELS 3 Xrotation Yrotation Zrotation
			End Site
			{
				OFFSET 0.000000 11.566666 0.000000
			}
		}
	}
	JOINT newVegas:ElvisFacialAnim_Joint
	{
		OFFSET 1.000000 -95.330101 -8.825800
		CHANNELS 3 Xrotation Yrotation Zrotation
		End Site
		{
			OFFSET 0.000000 35.315800 0.000000
		}
	}
}
MOTION
Frames: 4
Frame Time: 0.016667
2.245728 80.385849 4.152090 -3.114638 -42.882748 16.792333 0.000000 -0.000001 0.000001 -19.330019 29.836995 -3.626036 55.723992 2.498181 3.188451 -25.374255 20.554020 -7.369556 -0.000000 0.000000 0.000000 0.000000 0.000000 -0.000000 -36.424388 16.044994 -40.610177 76.478769 7.291040 -9.126248 -30.533264 -10.468803 25.659803 0.000000 -0.000000 -0.000000 -0.000003 0.000002 -0.000000 0.376551 -1.961128 8.027847 0.027304 -1.386081 5.062934 -0.080025 -1.272382 5.054161 -4.511150 1.536315 3.060785 -4.511152 1.536325 3.060780 -0.000001 0.000000 -0.000003 -4.511135 1.536314 3.060783 -4.511117 1.536329 3.060785 -0.000002 -0.000001 -0.000000 -0.000001 0.000000 -0.000004 -0.548181 2.093935 14.135926 -33.452040 -33.142007 -47.500728 -0.000169 -87.864435 -0.000156 -23.599350 -10.877271 -3.087990 14.035348 -26.979138 7.263437 13.226122 36.584884 -28.242993 0.000004 -0.000001 -0.000006 0.201888 1.658374 -13.881098 0.378667 2.256065 -19.053514 -0.000000 -0.000001 0.000002 0.201428 1.656496 -13.865106 0.379297 2.257883 -19.069526 0.000002 0.000001 -0.000001 0.201893 1.658367 -13.881098 0.378669 2.256069 -19.053503 0.000001 -0.000000 -0.000003 1.160829 5.598147 -13.431392 0.380585 -1.801574 -19.536752 0.000001 -0.000005 -0.000001 0.000001 0.000000 0.000000 0.000001 0.000000 0.000000 0.000001 0.000000 0.000001 -0.000000 0.000000 -0.000001 -0.000000 0.000000 -0.000001 -0.000000 0.000000 -0.000001 -0.000000 -0.000001 -0.000001 -0.011252 -5.892450 7.391172 118.821167 72.028129 -83.805950 0.000004 25.801431 -0.000002 -19.295716 3.278942 -3.516598 40.606598 -3.110547 26.124220 -37.849538 -44.265008 -46.874980 -0.000002 -0.000001 -0.000000 3.635326 -6.110995 61.464463 7.728623 -6.904475 96.464435 -0.000001 0.000001 -0.000002 3.635331 -6.110969 61.464463 7.728603 -6.904464 96.464428 -0.000005 0.000001 -0.000000 3.635331 -6.110956 61.464463 7.728613 -6.904446 96.464449 -0.000001 -0.000001 -0.000000 3.635347 -6.111013 61.464469 7.728588 -6.904444 96.464442 0.000001 0.000000 -0.000004 0.000001 0.000001 0.000000 0.000001 0.000001 -0.000001 0.000001 0.000001 0.000000 -0.000003 0.000001 -0.000001 -0.000003 0.000002 -0.000000 -0.000003 0.000001 -0.000001 -0.000003 0.000002 0.000001 -0.000000 -0.000001 -0.000002 -0.000000 -0.000001 -0.000002 -0.000000 -0.000001 -0.000002 -0.000000 -0.000001 -0.000002 -0.000000 -0.000001 -0.000002 -0.000000 -0.000001 -0.000002 -0.000000 -0.000001 -0.000002 0.000001 -0.000002 -0.000001 0.000000 -0.000001 0.000001 
2.681345 80.624756 4.243402 -2.275986 -42.422981 17.375484 0.000000 -0.000003 -0.000000 -19.819218 29.262115 -4.239642 54.957628 2.757906 2.644298 -24.990455 20.542976 -6.745529 -0.000000 0.000000 -0.000000 -0.000002 0.000001 -0.000000 -37.465343 16.092651 -40.253481 75.885259 7.012180 -9.156620 -29.707034 -10.003510 25.654279 0.000000 -0.000000 0.000000 0.000002 0.000001 -0.000000 0.417727 -1.675797 8.018426 0.080687 -1.191927 5.048746 -0.026331 -1.085812 5.036024 -4.503550 1.523657 2.862992 -4.503557 1.523672 2.862980 -0.000001 0.000000 -0.000000 -4.503528 1.523667 2.862991 -4.503495 1.523684 2.862982 -0.000000 0.000000 0.000001 -0.000001 0.000000 0.000002 -0.621172 2.423845 13.794277 -32.468342 -33.363726 -47.016632 0.000701 -89.505271 0.000805 -24.397905 -11.122544 -2.975589 14.573638 -27.004425 6.829638 13.798534 36.351305 -28.336088 0.000001 0.000000 -0.000006 0.215243 1.711484 -14.335239 0.390033 2.288688 -19.340150 -0.000002 -0.000001 0.000000 0.214769 1.709608 -14.319247 0.390669 2.290503 -19.356158 0.000000 0.000001 -0.000003 0.215247 1.711475 -14.335247 0.390030 2.288686 -19.340138 -0.000002 -0.000004 0.000001 1.205585 5.643529 -13.888381 0.392228 -1.769045 -19.822565 -0.000000 -0.000002 -0.000000 -0.000001 0.000000 -0.000000 -0.000001 0.000000 -0.000000 -0.000001 0.000000 -0.000000 0.000001 0.000000 0.000000 0.000001 0.000000 -0.000001 0.000001 0.000000 0.000000 0.000001 -0.000001 -0.000000 -0.002584 -5.888139 7.492393 118.408569 71.655993 -83.809249 0.000003 25.428868 -0.000013 -19.616662 4.100340 -3.061018 40.606598 -3.110548 26.124227 -37.849538 -44.265011 -46.874974 0.000000 -0.000005 0.000000 3.635331 -6.110992 61.464456 7.728623 -6.904473 96.464442 -0.000002 -0.000000 0.000001 3.635336 -6.110969 61.464463 7.728601 -6.904459 96.464435 0.000001 0.000002 -0.000003 3.635334 -6.110954 61.464463 7.728613 -6.904451 96.464442 -0.000003 0.000001 -0.000000 3.635346 -6.111010 61.464463 7.728593 -6.904446 96.464442 -0.000001 -0.000000 -0.000001 0.000002 0.000000 0.000001 0.000002 -0.000001 0.000001 0.000002 -0.000000 0.000000 0.000000 0.000001 -0.000000 0.000000 0.000002 -0.000001 0.000000 0.000001 -0.000000 -0.000000 0.000002 -0.000000 -0.000001 -0.000002 -0.000002 -0.000001 -0.000002 -0.000002 -0.000001 -0.000002 -0.000002 -0.000001 -0.000002 -0.000002 -0.000001 -0.000002 -0.000002 -0.000001 -0.000002 -0.000002 -0.000001 -0.000002 -0.000002 -0.000001 -0.000001 -0.000001 0.000000 -0.000003 -0.000000 
3.117796 80.945366 4.306376 -1.382404 -42.002774 17.969490 0.000000 -0.000001 0.000001 -20.203691 28.876209 -4.840624 53.882201 3.048277 2.200007 -24.425518 20.388209 -6.174363 0.000000 -0.000000 -0.000000 0.000001 -0.000001 -0.000000 -38.777053 15.944947 -39.762336 75.213333 6.643356 -9.223551 -28.844688 -9.169591 25.489487 0.000000 0.000002 -0.000000 0.000000 0.000000 0.000003 0.469905 -1.377749 7.993369 0.140024 -0.990030 5.027503 0.034599 -0.892060 5.011680 -4.499032 1.521606 2.694105 -4.499028 1.521598 2.694112 0.000001 0.000000 -0.000001 -4.498897 1.521532 2.694124 -4.499135 1.521733 2.694085 -0.000001 0.000000 -0.000001 0.000001 0.000000 -0.000002 -0.713344 2.845079 13.378911 -31.471739 -33.569437 -46.626228 0.000303 -90.796997 0.000345 -24.660325 -11.610471 -3.034253 15.085006 -27.036501 6.348053 14.365788 36.116801 -28.425019 0.000000 0.000000 -0.000001 0.228963 1.764282 -14.787766 0.401518 2.321127 -19.625736 0.000001 0.000000 -0.000004 0.228475 1.762414 -14.771765 0.402167 2.322942 -19.641729 -0.000000 0.000001 -0.000002 0.228968 1.764275 -14.787769 0.401522 2.321128 -19.625739 -0.000001 -0.000002 -0.000002 1.250548 5.688384 -14.343766 0.403983 -1.736696 -20.107339 0.000001 -0.000003 -0.000004 -0.000001 0.000000 -0.000001 -0.000001 0.000000 -0.000001 -0.000001 -0.000000 -0.000000 -0.000000 0.000001 -0.000001 -0.000000 0.000001 -0.000001 -0.000000 0.000001 -0.000001 -0.000000 0.000001 -0.000001 0.007037 -5.858261 7.548149 118.019576 71.112501 -83.953414 0.000000 25.056464 0.000009 -20.278275 5.167651 -2.331179 40.606595 -3.110547 26.124220 -37.849538 -44.265008 -46.874980 -0.000000 -0.000005 -0.000001 3.635326 -6.110993 61.464463 7.728624 -6.904475 96.464442 -0.000000 -0.000001 -0.000001 3.635334 -6.110969 61.464469 7.728601 -6.904459 96.464435 -0.000002 0.000001 -0.000003 3.635333 -6.110954 61.464463 7.728614 -6.904448 96.464449 0.000001 0.000001 0.000001 3.635346 -6.111012 61.464469 7.728596 -6.904447 96.464442 0.000001 0.000004 -0.000004 0.000002 0.000001 0.000000 0.000002 -0.000001 0.000001 0.000002 0.000001 -0.000000 -0.000000 0.000001 -0.000001 -0.000000 0.000002 -0.000000 -0.000000 0.000001 -0.000001 -0.000001 0.000002 -0.000000 0.000000 0.000004 -0.000000 0.000000 0.000004 -0.000000 0.000000 0.000004 -0.000000 0.000000 0.000004 -0.000000 0.000000 0.000004 -0.000000 0.000000 0.000004 -0.000000 0.000000 0.000004 -0.000000 0.000000 0.000004 -0.000002 0.000000 -0.000001 0.000001 
3.538334 81.332664 4.338572 -0.463035 -41.593765 18.555532 0.000001 -0.000001 -0.000001 -20.482031 28.708921 -5.417552 52.538280 3.336291 1.907733 -23.689753 20.078205 -5.674092 0.000000 -0.000000 0.000000 -0.000004 -0.000001 -0.000000 -40.227290 15.596821 -39.275439 74.373247 6.231016 -9.316188 -27.869945 -8.104584 25.262129 0.000000 -0.000003 0.000000 -0.000001 -0.000003 0.000001 0.524105 -1.084993 7.947845 0.196458 -0.793560 5.000013 0.093395 -0.702942 4.982107 -4.485932 1.529411 2.559126 -4.485932 1.529400 2.559140 -0.000003 0.000000 0.000003 -4.485857 1.529383 2.559143 -4.485947 1.529400 2.559136 -0.000000 0.000001 0.000003 -0.000003 0.000000 0.000003 -0.812583 3.306761 12.932776 -30.510520 -33.820631 -46.309349 0.000194 -91.652806 0.000183 -24.475990 -12.258161 -3.030207 15.586995 -27.071544 5.859864 14.927327 35.881688 -28.509729 -0.000001 0.000001 0.000001 0.243039 1.816744 -15.238220 0.413109 2.353357 -19.910025 -0.000000 -0.000000 0.000001 0.242537 1.814874 -15.222219 0.413763 2.355172 -19.926030 0.000001 -0.000002 0.000003 0.243043 1.816730 -15.238222 0.413109 2.353364 -19.910010 0.000001 -0.000002 0.000001 1.295655 5.732680 -14.797125 0.415838 -1.704562 -20.390792 0.000001 0.000002 -0.000003 -0.000000 0.000000 -0.000001 -0.000000 0.000000 -0.000001 -0.000000 -0.000000 -0.000001 -0.000001 -0.000001 -0.000000 -0.000000 -0.000001 -0.000000 -0.000001 -0.000001 -0.000000 -0.000000 -0.000001 -0.000000 0.016839 -5.810547 7.566558 117.834396 70.381432 -84.393797 0.000023 24.613640 -0.000006 -21.332906 6.419918 -1.469759 40.606598 -3.110547 26.124220 -37.849541 -44.265018 -46.874980 0.000000 -0.000009 -0.000002 3.635330 -6.110992 61.464456 7.728625 -6.904474 96.464435 0.000002 -0.000000 0.000000 3.635332 -6.110970 61.464463 7.728598 -6.904460 96.464435 0.000004 0.000001 -0.000001 3.635330 -6.110953 61.464469 7.728614 -6.904450 96.464449 0.000001 -0.000001 -0.000000 3.635346 -6.111012 61.464469 7.728594 -6.904443 96.464442 0.000001 -0.000000 0.000001 -0.000003 0.000001 -0.000001 0.000000 0.000000 0.000001 -0.000003 0.000001 -0.000001 -0.000001 -0.000001 0.000002 -0.000001 0.000000 0.000003 -0.000001 -0.000001 0.000002 -0.000000 0.000000 0.000003 0.000002 -0.000002 -0.000003 0.000002 -0.000002 -0.000003 0.000002 -0.000002 -0.000003 0.000002 -0.000002 -0.000003 0.000002 -0.000002 -0.000003 0.000002 -0.000002 -0.000003 0.000002 -0.000002 -0.000003 -0.000000 -0.000002 -0.000002 0.000001 -0.000001 -0.000001 
